
<global>
amp_veltrack=0
ampeg_attack=0.005
ampeg_release=0.35
master-volume=-6
</global>

<group>
group_label=PP
lpc_hicc1=42
lpc_locc1=0

<region>
hivel=127
key=A#3
loop_end=290515
loop_mode=loop_continuous
loop_start=78454
loop_xfade=56004
lovel=0
lpc=QoyqQNxrTcGoF3hBdaQ4wWnk1kDxfJjAswKhQBkUm8Bo4V5Am0e0vynAPT4Te7K9RAs6P/Tzjb8ocMk/Ke2av75/kj1HOp8/qqk/v3Xdh74pTyM+FVzePjFVCb8Q/Tw+
lpc_rms=-37.66
sample=Violin2Solo_sustain_PP_A#3.opus
</region>

<region>
hivel=127
key=A#4
loop_end=282860
loop_mode=loop_continuous
loop_start=76386
loop_xfade=54529
lovel=0
lpc=7j2JQOm2GcEAXzxB+JsZweuC2kBJiKrAmGt6QNgNCsBsAqQ/DeZ+v96/2j6AC1a9mISoPhVMGb8S00s/tiL8vrcvGT/+H4S+UcoFvWmbiz4rOki/r6iNPxmfXb8sV7Q+
lpc_rms=-39.72
sample=Violin2Solo_sustain_PP_A#4.opus
</region>

<region>
hivel=127
key=A#5
loop_end=280895
loop_mode=loop_continuous
loop_start=75856
loop_xfade=54150
lovel=0
lpc=RtbLQACnKMA3EGVAJJa8P0Cg+z+spvU+Z/F8QDpDgL9pCGhAPT5mP4tH+j+0B5g/7agUQHWKcD9QUCZAx4RTP5iU0j8B5CxAepExP2KDyD+U90JAdAmLviLFNUCEdCRA
lpc_rms=-30.57
sample=Violin2Solo_sustain_PP_A#5.opus
</region>

<region>
hivel=127
key=A#6
loop_end=281566
loop_mode=loop_continuous
loop_start=76037
loop_xfade=54279
lovel=0
lpc=pe/aQJoUI8DKNBtAKe0bPtLE5D+Zqps/+8ywPwcRJr6Y3dQ+C/e8P8nVmz+vEARAV9F0Pk4NjcBQundAI6iWv7S0wT960QW/Zu6oPiMZmz2ttus/8FMcP3QHnj4ZbAi+
lpc_rms=-36.14
sample=Violin2Solo_sustain_PP_A#6.opus
</region>

<region>
hivel=127
key=A3
loop_end=285099
loop_mode=loop_continuous
loop_start=76991
loop_xfade=54960
lovel=0
lpc=MpbYQNSxkMGeRcFBVgylwbbUXEFTWg/BlCr1QPFc6sAvRrpA4RNQwEuI1D8qy5y/dWeNP0exNL/p/AM/TTE+PVmOtL+g4itAgbchwJzp7D/Nqby/gCfPPw/xyb/5eTo/
lpc_rms=-34.17
sample=Violin2Solo_sustain_PP_A3.opus
</region>

<region>
hivel=127
key=A4
loop_end=284452
loop_mode=loop_continuous
loop_start=76816
loop_xfade=54836
lovel=0
lpc=Y1QiQVfw4cGCShdCQ4YEwuIC2kE2bMbBOSKiQUhrU8HcPARBTL+5wFuIDkBZna8/0XElwF0dNEA5XAjAZBhgP/+q/r5eEac/pnbcvtSD7Lw32dS/gLg9QPSl9L+wZts+
lpc_rms=-29.56
sample=Violin2Solo_sustain_PP_A4.opus
</region>

<region>
hivel=127
key=A5
loop_end=288077
loop_mode=loop_continuous
loop_start=77795
loop_xfade=55535
lovel=0
lpc=XJ2VQNuDpMAqbqdAPkMIwFVIDEDYsvm+7XrEP3/S1L0ZNSw/Adw3P3cXij/GrhW+2SXfPhylqj8JMBo/qdRsveZxaT/bvFU/8uncPltTLT9j0WE+u+7LP9kBpb9TtCVA
lpc_rms=-33.82
sample=Violin2Solo_sustain_PP_A5.opus
</region>

<region>
hivel=127
key=A6
loop_end=282690
loop_mode=loop_continuous
loop_start=76340
loop_xfade=54496
lovel=0
lpc=GNIPQS1yJ8Agj1VAoXXwP/tKwz90dvY/hlwWvqlJrD/n6te9BJuLPxKDLECG2w4+bf1MQBDEgMAdeVLAc+RDQLc9TMA2eAU/w4uHv7MQuz4PjCY/WnHpPiyUtz8smqC/
lpc_rms=-33.34
sample=Violin2Solo_sustain_PP_A6.opus
</region>

<region>
hivel=127
key=B3
loop_end=285807
loop_mode=loop_continuous
loop_start=77182
loop_xfade=55097
lovel=0
lpc=ByfEQPs0gMHWH6tBVGGQwSH7NkEQUeLA+cyxQK4EjMBXGmJAjq0xwGFx1z9jeoU+c1Psvzxh0z/sgwe+EBmMv03joz+vVhk8H/Sbv/mRrT8Y33q/+y1BP6EAFr+ZAbI9
lpc_rms=-35.93
sample=Violin2Solo_sustain_PP_B3.opus
</region>

<region>
hivel=127
key=B4
loop_end=285425
loop_mode=loop_continuous
loop_start=77079
loop_xfade=55023
lovel=0
lpc=jbScQOyQKcE+g1BBsnsrwd59CUHQ8aPAvp8FQFnjPr6lXBo/JGCYPqgMCb95O+2+2lg+QKyPX8DNBlpA01UXwJDVxj8QDAa/GXNEP+xO7b46lze+V/lPP7xy3b5XYDc+
lpc_rms=-31.94
sample=Violin2Solo_sustain_PP_B4.opus
</region>

<region>
hivel=127
key=B5
loop_end=281009
loop_mode=loop_continuous
loop_start=75887
loop_xfade=54172
lovel=0
lpc=GTTDQPihGMDGVqZAt1yRv6FGlEA2ZDC/avtqQA48bT/K/w1Ae/jJP6Ep1D9BIjRARfYLP59NM0Bpycs//aDPP9wsBECNlqE/sE1NQOxIgb7UgoNAMeqsvk+Nh0BtHzW/
lpc_rms=-30.79
sample=Violin2Solo_sustain_PP_B5.opus
</region>

<region>
hivel=127
key=B6
loop_end=279747
loop_mode=loop_continuous
loop_start=75546
loop_xfade=53929
lovel=0
lpc=fTc2QZFjxcByDNNAjCUYwIrwp0BTJjy/zKbDQE3ZXL/u8itAL86UP19Pj0BKZM0/6UEawUffxUD5gFPAUlIsQA0ZKcDsBuk/5eKBwHOdAEBPnoa/nEaNP26tZMAZeIc/
lpc_rms=-30.55
sample=Violin2Solo_sustain_PP_B6.opus
</region>

<region>
hivel=127
key=C#4
loop_end=274937
loop_mode=loop_continuous
loop_start=74247
loop_xfade=53001
lovel=0
lpc=v2FmQRe7J8LHt2NCho8/wvM/80EpXqPBTSmKQcwEgcFEh3FBrBZawRdyJUHY8bTABzEMQLc0v79yS0pAxtJTwBlaXz9JXFNAKyiXwH4QckBwHaLA26XMQHPdgcDMopE/
lpc_rms=-32.03
sample=Violin2Solo_sustain_PP_C#4.opus
</region>

<region>
hivel=127
key=c#5
loop_end=277490
loop_mode=loop_continuous
loop_start=74936
loop_xfade=53494
lovel=0
lpc=wkvyQDg7lsGbCL9Bu66pwbxgckHH0gLBSPd7QIXFkcDXZ55AXjEWwNZs/b48Zw1AgMQvwKdN0D9avkO++aZ+P4bu7L8BSwVAGrvHvwA3VT9hmwU+YYMIv7pWRT6GDLI+
lpc_rms=-28.46
sample=Violin2Solo_sustain_PP_C#5.opus
</region>

<region>
hivel=127
key=C#6
loop_end=284212
loop_mode=loop_continuous
loop_start=76751
loop_xfade=54790
lovel=0
lpc=LJE5QWUwyMBcYp9AD4lTv8zHYEBZ08s+WfJcQC/4T77yCXhAK5QCviVCd0B322G/X1ClQAE62L8jK5JANqPTvpo4b0DUhXu+TDiEQKWmf78kUrdAt4PWwAS3Lb8k5CtA
lpc_rms=-30.09
sample=Violin2Solo_sustain_PP_C#6.opus
</region>

<region>
hivel=127
key=C4
loop_end=290078
loop_mode=loop_continuous
loop_start=78336
loop_xfade=55920
lovel=0
lpc=uDC4QN/zZMHGcYlBY6tTwd8PCUEvb7jA18pvQNGqL8DLngBATyEbvhSzoL8R7zw/AnljPlYnOr9ARtA/IJH3v6Jcoz/iN2a/BqiXP1fgjb+2gDQ/bYSSvmuWtj6XrXe+
lpc_rms=-37.20
sample=Violin2Solo_sustain_PP_C4.opus
</region>

<region>
hivel=127
key=C5
loop_end=278690
loop_mode=loop_continuous
loop_start=75260
loop_xfade=53725
lovel=0
lpc=CljVQJL9hsFpJbRBL76gwSpDeUH3ZijBKKqyQMrBTcCoijBAc9TMv5fHCj50qTY7LR46Pxgk078vq9A/1NwqPrRuLL8OwRy/LbygPyFn+j3nFnm/2P6pP1QagL+5mg8/
lpc_rms=-31.45
sample=Violin2Solo_sustain_PP_C5.opus
</region>

<region>
hivel=127
key=C6
loop_end=279079
loop_mode=loop_continuous
loop_start=75365
loop_xfade=53800
lovel=0
lpc=RwFoQdX+9cAYbg9Bar6WwDFcrECsWpm/RI8RQETnqz/ykw+8kWEtQMsv6735ZQlAW+WZPxMqlD49TiFAsfV2PQqFGUDwI68+E8C2PxhOCkCzhqm/z721QG0EysB5b37A
lpc_rms=-28.01
sample=Violin2Solo_sustain_PP_C6.opus
</region>

<region>
hivel=127
key=C7
loop_end=279775
loop_mode=loop_continuous
loop_start=75553
loop_xfade=53934
lovel=0
lpc=Iq4rQY/So8Ann2hALag1P1fPqT/62ghA/jfYPwfgCT+7N7Y/KdT1P2KNh0A4Ev3AS8q1P1QPVECIwwHA5YgCQDR/hr/EwWc+tLUYPwHxZj/pQIg+9ZUGwG6OEECxRqu/
lpc_rms=-34.02
sample=Violin2Solo_sustain_PP_C7.opus
</region>

<region>
hivel=127
key=D#4
loop_end=282783
loop_mode=loop_continuous
loop_start=76366
loop_xfade=54514
lovel=0
lpc=02XTQLpjgcHsGJ9BcuODwfpkMUF5LtvA3e+VQPneQcCs2v0/2+61vy6BKz8vkQ8/DRu/vgc3vb7iyZk/hp26v1sN4D/I94i/bUdvPXR/hj+BfxDAMF1HQOAEOcCvG6c/
lpc_rms=-36.38
sample=Violin2Solo_sustain_PP_D#4.opus
</region>

<region>
hivel=127
key=D#5
loop_end=280387
loop_mode=loop_continuous
loop_start=75719
loop_xfade=54052
lovel=0
lpc=oT2uQAXORcGXZWpBqIgqwU0W1kCwQ1jAAwmCP4yckz7G2VO/Ue4gQIOXQ8AtGQRAWFz8voBsCL/Y8lo/KNelPrA4jL91eu8+vLadPu2kpb6jFAg+zZ2SPrAFHb8CQ6o+
lpc_rms=-31.14
sample=Violin2Solo_sustain_PP_D#5.opus
</region>

<region>
hivel=127
key=D#6
loop_end=277994
loop_mode=loop_continuous
loop_start=75072
loop_xfade=53591
lovel=0
lpc=PYAxQVA40MB1YARBwVbkPtj/t0B9+oC8DGKFQBE1Xj7JU1dABbRSP4riTkDzMHM/Xgs7QLp+ST/UKDhAZV+oP0FjLEBjXCE/zKONQJdZDsHKtahAzQMGwHZxj7+kpPi/
lpc_rms=-27.29
sample=Violin2Solo_sustain_PP_D#6.opus
</region>

<region>
hivel=127
key=D4
loop_end=289439
loop_mode=loop_continuous
loop_start=78163
loop_xfade=55797
lovel=0
lpc=RlgrQeCH9sFEsitCkngSwopKqkGjFSHBnouQQFBJEcCoTv0/hAJgwC+7h0CA4G/Ah19IQEfy07+uBQO+AaSsPQasNUAnmanAJDesQIMmNsBKqBA/bQBsPQUISz+xQT2/
lpc_rms=-33.25
sample=Violin2Solo_sustain_PP_D4.opus
</region>

<region>
hivel=127
key=D5
loop_end=279263
loop_mode=loop_continuous
loop_start=75415
loop_xfade=53835
lovel=0
lpc=Vo6ZQJOkDcFTPxBBQPaswER4UUB48tq/96mCP+bg278QTPM/KeYHv9Jakr/E99w/0rWXv7AZ076+ado/TB3AvyQzgD/Bafi+ZxhDP23/PL4sfi8+ao0aP9rPSr5Z67E+
lpc_rms=-34.82
sample=Violin2Solo_sustain_PP_D5.opus
</region>

<region>
hivel=127
key=D6
loop_end=284826
loop_mode=loop_continuous
loop_start=76917
loop_xfade=54908
lovel=0
lpc=jH7MQNa+h78hZBtAiSM8Pn2UhD/DTbS9eiVXP45P0TtNeQQ/TczpPmoAyz6Av4A+yNwYPyasZT4mnTA/1hv+PTarCz90pt8+e6onPl1Wtz8BV4fAv+bmv+zl/z3ZWbC/
lpc_rms=-35.90
sample=Violin2Solo_sustain_PP_D6.opus
</region>

<region>
hivel=127
key=E4
loop_end=285793
loop_mode=loop_continuous
loop_start=77178
loop_xfade=55094
lovel=0
lpc=i0aqQBUwM8GG9EZBQFQWwd5+7ECzr7HAA0yPQIvwZcDJ+DtAVkDev/xTXz9fpKs+T28ZPymExL93HAFAaL3fv9trCUAeXvu/IWEXQI3T9L9t0ZE/pgNpvxTxmj9iXRO/
lpc_rms=-35.61
sample=Violin2Solo_sustain_PP_E4.opus
</region>

<region>
hivel=127
key=E5
loop_end=279453
loop_mode=loop_continuous
loop_start=75466
loop_xfade=53872
lovel=0
lpc=Z7X5QISAgcFjz5pBBJN9wRa9VkFl2vjAjGFYQD9mOL37yFA/lJK5PqMHsr6VQRy++zX4P7lgiL9JMZE/hV9xv94wCUDoQ2XAcxq9QH8P58Ad2P5AEjrWwON4jUD0kdq/
lpc_rms=-29.57
sample=Violin2Solo_sustain_PP_E5.opus
</region>

<region>
hivel=127
key=E6
loop_end=283710
loop_mode=loop_continuous
loop_start=76616
loop_xfade=54693
lovel=0
lpc=dFFUQfc4ysDqyu9ALMviv+8jVEAlrLpAA/QCQMwkUb+h7zZArjA3v5lyN0AzwcW+w1gYQGdxXL8TP0ZA/vIFvw9jC0ATkIc/VoEmwSlaVkCpVgPAM3jKvxjMwj/R59XA
lpc_rms=-28.11
sample=Violin2Solo_sustain_PP_E6.opus
</region>

<region>
hivel=127
key=F#4
loop_end=282655
loop_mode=loop_continuous
loop_start=76331
loop_xfade=54489
lovel=0
lpc=HfroQNDnl8HU8cZBu9atwdRIjEE7qWLBvfwrQUjS98A5/cVAmw2cwLb4RkD/fWa/zzq9vruujj+Fqq6/L4VSPw54Bz8h1qi/Z9W6P0m9uL/RVbM/z0FZv+0tKj2lS1M+
lpc_rms=-32.08
sample=Violin2Solo_sustain_PP_F#4.opus
</region>

<region>
hivel=127
key=F#5
loop_end=278675
loop_mode=loop_continuous
loop_start=75256
loop_xfade=53722
lovel=0
lpc=Yg+uQDMDP8HtIW5BJpdBwR7vEUGeJuHANkeuQFNNQcDfmPE/ln/uvYAfxb9IBjNAsm8swJ+1EEAmVFu/N2h+vrVHvT9+E+G/KW0YQD4BGcBJRrw/8wYpvr+Swj2m4A49
lpc_rms=-30.95
sample=Violin2Solo_sustain_PP_F#5.opus
</region>

<region>
hivel=127
key=F#6
loop_end=285226
loop_mode=loop_continuous
loop_start=77025
loop_xfade=54985
lovel=0
lpc=4mIFQfEvZcCxtJtAC2qIv/09JUBkCFE/PSs/QIpNTr8KbKU/HqwhP9yEnT+eyQY/wIXOPpkI5D/9U9K+RekbQJNw4sDe6AlAWDfvv3XLGr5mrtW90Gtrv0GNw79qIC4/
lpc_rms=-32.48
sample=Violin2Solo_sustain_PP_F#6.opus
</region>

<region>
hivel=127
key=F4
loop_end=289357
loop_mode=loop_continuous
loop_start=78141
loop_xfade=55781
lovel=0
lpc=W8auQMrRV8FILpJBOlCBwSiuNkEOudrAVHGFQM/TO8CDX0VAj6kmwOsDrz/lgS++SMqhvhBQnD4wL7Y+9MMpv/lbpT58qSQ/VC94vhq+eb8voq4/OGdgv89L/T5ZC4++
lpc_rms=-37.01
sample=Violin2Solo_sustain_PP_F4.opus
</region>

<region>
hivel=127
key=F5
loop_end=292641
loop_mode=loop_continuous
loop_start=79028
loop_xfade=56414
lovel=0
lpc=3y9jQKFDw8BmnOBApeeuwN+0mEAAKBzA9fhQP5S+Pz7n6wu9JFIlP7PJKL/fXZc9Dn/bPn/43T1z0A6/57K1PySMvL9hQac/IRImvjND5z6O8wq/FYiBP1aq+r64BaM+
lpc_rms=-38.90
offset=7804
sample=Violin2Solo_sustain_PP_F5.opus
</region>

<region>
hivel=127
key=F6
loop_end=286729
loop_mode=loop_continuous
loop_start=77431
loop_xfade=55275
lovel=0
lpc=WXkmQd4h1cBbk85AgjIiwBW6UkDFPJ0/05ctP7qQ+r65ONE/CJoyv1xyvT83Nja/nIDvP23nar/liNY/EdVlv+OvG0CTPCTB1W+oQHYsb8AQMHk/OphZv2U0HMBc6F0/
lpc_rms=-35.05
offset=13714
sample=Violin2Solo_sustain_PP_F6.opus
</region>

<region>
hivel=127
key=G#3
loop_end=284550
loop_mode=loop_continuous
loop_start=76843
loop_xfade=54855
lovel=0
lpc=9izOQG/0ecEblp9BUXOEwYx9NkFZpu3AKnOzQObIecBC1S1AZGSBvx0fm75PwuA/qWP/vyBJ3T/JxDq/BvddPoYX2z6olRE+WkSHv2SE6D/5cLO/6bFSP1Y6L7/ieXg+
lpc_rms=-34.93
sample=Violin2Solo_sustain_PP_G#3.opus
</region>

<region>
hivel=127
key=G#4
loop_end=292069
loop_mode=loop_continuous
loop_start=78873
loop_xfade=56304
lovel=0
lpc=LIvbQJ8WccHMr4tBfK5IwVUsIkGxiQ7Bm8vWQEyoLsD3uhJAZmndv0St4z4goLI/OfeRv2hRM7/O7BVA2/nLvyc4jD821A7AIX5KQAniG8D31o4/EvMXv/W78j5//o6+
lpc_rms=-37.74
offset=16719
sample=Violin2Solo_sustain_PP_G#4.opus
</region>

<region>
hivel=127
key=G#5
loop_end=287550
loop_mode=loop_continuous
loop_start=77653
loop_xfade=55433
lovel=0
lpc=aa+CQL2tvcCQCaxArgsbwPwyGEDhNQLAb40CQFVBKr9J8DM/qeaAPn0fUr8VNck/9x5qu9RZE7w8yO67LyVPPxwWPT55x2s/AYyev/94zD+ZHum9K5IlP7ACm79d09Q/
lpc_rms=-31.43
offset=7668
sample=Violin2Solo_sustain_PP_G#5.opus
</region>

<region>
hivel=127
key=G#6
loop_end=283820
loop_mode=loop_continuous
loop_start=76646
loop_xfade=54714
lovel=0
lpc=nIsjQU8X18BJ9cBAPdeuvz9/GUCXqQFAtHacPx2JLLzEtIU/65f0P539aj8D5AxAxlbePTiCgEBgF+jAt8faP2xcEUBdixjAVuogQPA/AcBFeBE+3cmRP4TYWD/SZta9
lpc_rms=-29.85
sample=Violin2Solo_sustain_PP_G#6.opus
</region>

<region>
hivel=127
key=G3
loop_end=286852
loop_mode=loop_continuous
loop_start=77464
loop_xfade=55299
lovel=0
lpc=YN30QBpnpMFS29VB2hKvwY8XV0HYZezAkdKcQNhrg8AEOm9AjaQbwPzxdD/baug+YwWwv3gYtT8JcQO/cJXCPsRqQb/Us6k/f0umvyEUTz8NMrK+FQ+MP6styb8VFC4/
lpc_rms=-35.08
sample=Violin2Solo_sustain_PP_G3.opus
</region>

<region>
hivel=127
key=G4
loop_end=297729
loop_mode=loop_continuous
loop_start=80402
loop_xfade=57395
lovel=0
lpc=aSvqQIH7l8G4wMpBnN+1wVA+kkHbimPBTEocQSPRx8CZgKlAsk2+wC9aqkDqCI/A1zZOQA9tp7/FBNq+OY2IPpg2dD7p2JW+3quWP64En785BiU/W4EqvmFMpD60ldC8
lpc_rms=-32.03
sample=Violin2Solo_sustain_PP_G4.opus
</region>

<region>
hivel=127
key=G5
loop_end=277458
loop_mode=loop_continuous
loop_start=74928
loop_xfade=53487
lovel=0
lpc=93CwQElRIsGd6SlBLPb9wBzr8EC10KnAObBeQNHGLMB+HDtA13isv0DNhz+M8bO+E0O0PCHV5L29MrA/4BxsvoTs2D110Oi+U9gPPlXeB0CnAA3ATAgkQEuMPcDSBQtA
lpc_rms=-30.58
sample=Violin2Solo_sustain_PP_G5.opus
</region>

<region>
hivel=127
key=G6
loop_end=284942
loop_mode=loop_continuous
loop_start=76949
loop_xfade=54930
lovel=0
lpc=6LAWQbdTpcDzSJtAwMYLwK5EdUCir1++Wd4hQBlji7+HLpA/NZR4vVMLwT+kmAO/89ITQF5ilL9Q5FdAxgAOwVqxQkANq6a/LyeOPl6ELL8dI22/e9UZv8gawj5jAx8/
lpc_rms=-31.96
sample=Violin2Solo_sustain_PP_G6.opus
</region>
</group>

<group>
group_label=MF
lpc_hicc1=84
lpc_locc1=43

<region>
hivel=127
key=A#3
loop_end=286742
loop_mode=loop_continuous
loop_start=77435
loop_xfade=55277
lovel=0
lpc=FH+xQDqIX8HmTpNB6lWBwWopQUGDKQ3BasbFQCLDcsCMWQpAbuTRv6zUpD8uzta+SBinv6peE0C2XMu/oDOdPIoXEz84e8w8mgGBvf9p0r0JEP29PRufP/z7sb+M/S0/
lpc_rms=-29.88
sample=Violin2Solo_sustain_MF_A#3.opus
</region>

<region>
hivel=127
key=A#4
loop_end=282942
loop_mode=loop_continuous
loop_start=76409
loop_xfade=54545
lovel=0
lpc=5trVQLfqbMEGfZFBC5tqweAtLUFW5OvAve2YQEKY7b8Ck2Y/c3niPgRNfL+k0QdALTOpv1VUzj7YgvY/nH1kwEbJfUBfCr6/1xmoP7JxCMCrNUBAli7fv8IWKD/LNis9
lpc_rms=-27.30
sample=Violin2Solo_sustain_MF_A#4.opus
</region>

<region>
hivel=127
key=A#5
loop_end=282915
loop_mode=loop_continuous
loop_start=76401
loop_xfade=54539
lovel=0
lpc=52Z7QAadqb8WTxpA/no7P6SVwT+DXJw+WUwmQGFfwb47QwZA+Dg6P99FqD+Mfpg/h27DP1AzCD8lrdE/EIiEP/BnTD+NlP4/87GfPkyNpj+ABNY/xxYlPyXmeD9LYwtA
lpc_rms=-28.34
sample=Violin2Solo_sustain_MF_A#5.opus
</region>

<region>
hivel=127
key=A#6
loop_end=267528
loop_mode=loop_continuous
loop_start=72246
loop_xfade=51573
lovel=0
lpc=NLMcQd00vcD5/KlAijoGPxoEDkApK/q/tvFqQHepnL55GxS+8Ld2QBYHpz9LszRAgPBgvn1ezcBre9lADB5mwJ32oz88WB+/yxtwQM8fI8DOkDNAZA9TP3uQu7+FCBC/
lpc_rms=-27.15
sample=Violin2Solo_sustain_MF_A#6.opus
</region>

<region>
hivel=127
key=A3
loop_end=285252
loop_mode=loop_continuous
loop_start=77032
loop_xfade=54990
lovel=0
lpc=HQyhQA4qQcGhLnVBmdZPwcaWGkGV/+HAP+emQC7XasCvRkRAfWktwJQD0j/w5tQ+KHDFvwog0T9zhYW/d4rzPmQRjb0FlkE/b9Orv+KR1D//AKa/q62NP/TfLb+XRac+
lpc_rms=-32.39
sample=Violin2Solo_sustain_MF_A3.opus
</region>

<region>
hivel=127
key=A4
loop_end=286828
loop_mode=loop_continuous
loop_start=77458
loop_xfade=55294
lovel=0
lpc=ULGjQPrOIsG6BDlByfD1wLBKrEDUzm/AAkc7QIp8jL/upos/2NgXv38vmD7MaIc+mT2sPywD27/94AFAh22wv5syyD/KIBW/5X4tP+ieEL+419I/xpmiv8STXz+BL4E+
lpc_rms=-28.99
sample=Violin2Solo_sustain_MF_A4.opus
</region>

<region>
hivel=127
key=A5
loop_end=278711
loop_mode=loop_continuous
loop_start=75266
loop_xfade=53729
lovel=0
lpc=pSRjQD8/ecDqpYxAnwYdwGAhH0AV5ne/UmfjP5GwPb+A1nE/stA4P0muKr3XtRM/OBVeP8dMlb6I65Q/ckWCPnoJHj5q+lc/akwLPySkUj47p4s+S6+UP8eaPb8J090/
lpc_rms=-23.88
sample=Violin2Solo_sustain_MF_A5.opus
</region>

<region>
hivel=127
key=A6
loop_end=276018
loop_mode=loop_continuous
loop_start=74539
loop_xfade=53210
lovel=0
lpc=e8duQbsV9cAC4/RAHV2jPwZcM0DPRZVA/ruov1PAdz78d15AHTEkQPJKikBMEes+4TDrQNjW08D3xUnA2DbnQAV0vcCxQ5lAaGpxwGI6zj8KJ3lA88aeP2xQETyZ4yq/
lpc_rms=-24.30
sample=Violin2Solo_sustain_MF_A6.opus
</region>

<region>
hivel=127
key=B3
loop_end=283162
loop_mode=loop_continuous
loop_start=76468
loop_xfade=54587
lovel=0
lpc=sJWrQIBEWsGJMJNBIoB8wR+jJUFbBNPAzbaZQDHOOsBwt8M/3WuLv6UrmD8XoNG+AawEvzVhfj+ykgi/TyYwv6Wp6j8fjK6/lbAMPn04eT6d2xc/P6DMv9mnsz/tDim/
lpc_rms=-32.56
sample=Violin2Solo_sustain_MF_B3.opus
</region>

<region>
hivel=127
key=B4
loop_end=282367
loop_mode=loop_continuous
loop_start=76253
loop_xfade=54434
lovel=0
lpc=27yOQGZZ/MAxVPFAoI2GwGp+X0BwfgbAH9iSP8Fsy76UjKA/gpaAv2pr/j+KVeS/jtrVP+mDQr8rZUw/Mo90P1iVpL+n554/t723vixBdj//EHS+JxDTvq8HUD9aDDW+
lpc_rms=-29.95
sample=Violin2Solo_sustain_MF_B4.opus
</region>

<region>
hivel=127
key=B5
loop_end=275399
loop_mode=loop_continuous
loop_start=74372
loop_xfade=53090
lovel=0
lpc=IkfBQGnB6L+eK5NAjqZIP1S4GkALs/M/FqwiQFaD7D/D+tc/5souQBJ73j8qruM/ev0vQLoZwj+FMwFAWgQhQKjL9z/mRe4/SUQaQKZO4D8hDw1AHVLSP0nLVkD0yt09
lpc_rms=-26.55
sample=Violin2Solo_sustain_MF_B5.opus
</region>

<region>
hivel=127
key=B6
loop_end=275817
loop_mode=loop_continuous
loop_start=74484
loop_xfade=53171
lovel=0
lpc=HY4VQcGn0MAZK29APWoUQPJpwL8Lios/EC9LQGKYyL8BhcI9ZnyWQKp+Fb92fUJAx7cDwedzukAdSnm+TnAWwM2sLkDsG0U/AAbwv/18xT/A5yhAXmhvwOHcoD+d7d2+
lpc_rms=-28.76
sample=Violin2Solo_sustain_MF_B6.opus
</region>

<region>
hivel=127
key=C#4
loop_end=285305
loop_mode=loop_continuous
loop_start=77047
loop_xfade=55000
lovel=0
lpc=C1y5QN3uc8GGkK5Bht2pwZMzgEE6PR7BCOy0QJDficCWPoBAOy5LwK+2rD+GkuA+7ke9v9gItD/wbRS/RWaYPuIkf75VbYY/ohXYvwhqD0CabyrA8Ew4QM4mA8C+mkA/
lpc_rms=-27.69
sample=Violin2Solo_sustain_MF_C#4.opus
</region>

<region>
hivel=127
key=C#5
loop_end=283808
loop_mode=loop_continuous
loop_start=76642
loop_xfade=54712
lovel=0
lpc=7Z2YQKPeFsHhcSNBZojywJbiqECViS/Aa+w8vWv6uT8DtJ+/uUE6P3e6hb9LMY0/vFcrvz0LvT5uHEM+vzp6v0Dumz8bIke/4UuaPwlbL7/ZWDC+54RyP312Cr8oNAQ/
lpc_rms=-24.35
sample=Violin2Solo_sustain_MF_C#5.opus
</region>

<region>
hivel=127
key=C#6
loop_end=273251
loop_mode=loop_continuous
loop_start=73791
loop_xfade=52677
lovel=0
lpc=RunhQIOttb/xRihAVCOoP1MUHkDTZdA/oUURQPOY3j+WKARA2QMIQGqyCEADGu0/W7f1P/wE/D/hDwpA1u/YP2rAGEC0PNY/2i4eQOkZtT+p601AMb3kvyhQzL+Z4wdA
lpc_rms=-26.50
sample=Violin2Solo_sustain_MF_C#6.opus
</region>

<region>
hivel=127
key=C4
loop_end=286104
loop_mode=loop_continuous
loop_start=77262
loop_xfade=55154
lovel=0
lpc=SQCsQGWgTMF5FXFBIeEywYZ260CN/LLAao+VQD6HaMBD0R1AJUKsv6/1Ij+j8kW+Lt+vvjZ55D6/C7g+u4KLv+EWYz+nQKc+iQiOvwd8ZT+UomO+iLBjPhkNZ74om4G9
lpc_rms=-32.39
sample=Violin2Solo_sustain_MF_C4.opus
</region>

<region>
hivel=127
key=C5
loop_end=281686
loop_mode=loop_continuous
loop_start=76069
loop_xfade=54303
lovel=0
lpc=ck6BQLsnAsFvMwlB9RC3wPaDZUC/YwfAwgg8P5RzmL7T+yo/r7N/v3PvNz/H/ZO++TnCPRbmEL+ZObY/gFnFvw6m5D8Jn+K/hFmXP0ls47z10va+Dao/P8td0b4YMYc+
lpc_rms=-25.51
sample=Violin2Solo_sustain_MF_C5.opus
</region>

<region>
hivel=127
key=C6
loop_end=283656
loop_mode=loop_continuous
loop_start=76601
loop_xfade=54682
lovel=0
lpc=+cXLQGlQmT0Adco/O3TiPgJHjT9oWUQ/KcxEPyUbgT+jlkU/cd2LP5rwET9dH24/roxZPzXWfT/QZVw/2QU4Pyx/XD8SOWw/iKpWP7ykYT9qUDs/E4yWP/WWX76lJo3A
lpc_rms=-29.98
sample=Violin2Solo_sustain_MF_C6.opus
</region>

<region>
hivel=127
key=C7
loop_end=256996
loop_mode=loop_continuous
loop_start=69402
loop_xfade=49543
lovel=0
lpc=4W1NQZ9DA8FcC09AkQVzPy3xlj9D7TVAKV17P0Uzhr+jsxpA6TEIP9BHx0CFIyLBjXnePwPTxEBqTz3ACK4pQJUzrr9jYCM+iO4RQOf4hT+0cQw/LAv8v4ERpT+a+KS+
lpc_rms=-31.88
sample=Violin2Solo_sustain_MF_C7.opus
</region>

<region>
hivel=127
key=D#4
loop_end=287874
loop_mode=loop_continuous
loop_start=77740
loop_xfade=55496
lovel=0
lpc=wAajQBg+RcHsE3JB+I9Gwee+EUGvq/DAwz3aQLH7r8AOxI5AJF9EwDK2vz+t9xu/vNryPgmBPT5o+h6/zuEfPhP+4D4xIkS+mZe6vdUCrr6MAYs/lkSgv727SD+DKFy+
lpc_rms=-32.36
sample=Violin2Solo_sustain_MF_D#4.opus
</region>

<region>
hivel=127
key=D#5
loop_end=276347
loop_mode=loop_continuous
loop_start=74628
loop_xfade=53273
lovel=0
lpc=jS92QPLt08C37wFB0njqwNad30B+Xq3AHTZnQDHTHsDOBds/FJ7OvVy2Ur8sQJU+9DW1PqICQr9NVbM/VuTLv7spuD9oIlq/2OvNP30n2L85Av4/CX6Kvx+ThT8tENO9
lpc_rms=-27.54
sample=Violin2Solo_sustain_MF_D#5.opus
</region>

<region>
hivel=127
key=D#6
loop_end=272472
loop_mode=loop_continuous
loop_start=73581
loop_xfade=52526
lovel=0
lpc=/0gHQTLfM8BHjq5Ad7HdP6W3bkAFmQU/lwUdQLYkHj9/3tQ/ly62P3q2tz+OJdM/TYyRPx2M7j8Uk5w/4uDQP0Mv8D+vNA4/xYkxQBr6u8CEtrY/2+t4v+gdCMBbO6y/
lpc_rms=-24.27
sample=Violin2Solo_sustain_MF_D#6.opus
</region>

<region>
hivel=127
key=D4
loop_end=285689
loop_mode=loop_continuous
loop_start=77150
loop_xfade=55074
lovel=0
lpc=7D6cQAskQcH2/oJBq45xwbT3OkEg0AfBZvLFQKPSicBSnDNAcNKcv/KH/L4bcp8//FO1v8Qxqj+iuJ++Ce3FvyY7SEDLpEjAzmn9P/pvFb+NuKc+FrQRv21EOT/FW4a+
lpc_rms=-31.55
sample=Violin2Solo_sustain_MF_D4.opus
</region>

<region>
hivel=127
key=D5
loop_end=284384
loop_mode=loop_continuous
loop_start=76798
loop_xfade=54823
lovel=0
lpc=mOqEQAJE4cBvbtxAnnilwLOwmECpmC/Af0Z4P8sTH7/qpdU+2YUlPib5l76Zj2g+qq+FPg5aoL/bK9E/BuFlvw2QkT4iX7a+QXBXP5eok75Fmx0/usrLvuD+sj4CcDA+
lpc_rms=-29.48
sample=Violin2Solo_sustain_MF_D5.opus
</region>

<region>
hivel=127
key=D6
loop_end=285638
loop_mode=loop_continuous
loop_start=77137
loop_xfade=55064
lovel=0
lpc=w3q4QCxY2b7youc/jCn+PnXJLD8N61Y/iiJCP96+WT5GkYM/eApJP2Zq1z4u3WM/apgFP6iOGT+FqWI/7LoIPy715z4vPKM/U2bTPB251D+ww1PAd5Tav0nCcz6AUx+/
lpc_rms=-29.26
sample=Violin2Solo_sustain_MF_D6.opus
</region>

<region>
hivel=127
key=E4
loop_end=273857
loop_mode=loop_continuous
loop_start=73955
loop_xfade=52793
lovel=0
lpc=ZCW1QC77WcHvyopBSFF2wRTdK0ETZa7A874aQGnqAcDBUPU/ub6NvugHZb/n68k+HHa4P6AFFsBVFxVAET39v0QLBkBfOgXAQTwSQLRQ879u0lg/7rolvrVLxjyMEx2+
lpc_rms=-32.84
sample=Violin2Solo_sustain_MF_E4.opus
</region>

<region>
hivel=127
key=E5
loop_end=285247
loop_mode=loop_continuous
loop_start=77031
loop_xfade=54989
lovel=0
lpc=r2w9QOZhg8DNg4lAridmwCplg0BnjS7AOyXpP//qk781IxA/OgK7PF4y6z3mmWK+oA8pPmcTjb4IPUY/2KdGv1krmz+XooG/85mcPyIqA7+yeVo/4bvXvunUnD5Wg+U+
lpc_rms=-32.12
sample=Violin2Solo_sustain_MF_E5.opus
</region>

<region>
hivel=127
key=E6
loop_end=278928
loop_mode=loop_continuous
loop_start=75325
loop_xfade=53771
lovel=0
lpc=qsm/QNjLAMDOPDNATa05vl21nD8gDoc/JUs5PxbdCj9/vTo/pmgaPyt2Ij+wswc/Dj51P2OnrD5nSzY/530ZP5EvBz99cqQ/e0KewF3DsT9vDZG/XR6hvRksDz5+8DO/
lpc_rms=-31.93
sample=Violin2Solo_sustain_MF_E6.opus
</region>

<region>
hivel=127
key=F#4
loop_end=281625
loop_mode=loop_continuous
loop_start=76053
loop_xfade=54291
lovel=0
lpc=VVqjQEvROsEsVVVBTWsmwRq7BEGtYsnApIpSQJozsr+JZ7U/yL+Sv12lNTwXhCQ/3mR5viaiKr+gvo8/RUW3v8movT9fBHS/e2lkvuYK/D5gHRO+jWJ7PqXQt76phoU+
lpc_rms=-27.72
sample=Violin2Solo_sustain_MF_F#4.opus
</region>

<region>
hivel=127
key=F#5
loop_end=282763
loop_mode=loop_continuous
loop_start=76360
loop_xfade=54510
lovel=0
lpc=q2+EQMWU18CACPhAcJmjwK6GnECdt0HA7LNBQDUYwL8jdfM/cEtkvogmhD4eKEI/yaUpvgkLqb2gYtg/ofsJwH3j4D8f6K2/4LPyP8NAMsCaZRBALfPzv6X3sj/fVJC/
lpc_rms=-31.27
sample=Violin2Solo_sustain_MF_F#5.opus
</region>

<region>
hivel=127
key=F#6
loop_end=278455
loop_mode=loop_continuous
loop_start=75197
loop_xfade=53680
lovel=0
lpc=G8PnQI2TQsBUsiVAVqsNPwoGpT+cMbQ/z/NdP4NlYD8q21k/oZqNP8Rtaz833oc/EveCPxTnpz/bsRQ/pcnXP6FxssAsjw1AuzqFPoFjU7+epNY+0pw8v4VoYT5SiJ8+
lpc_rms=-31.73
sample=Violin2Solo_sustain_MF_F#6.opus
</region>

<region>
hivel=127
key=F4
loop_end=285274
loop_mode=loop_continuous
loop_start=77038
loop_xfade=54994
lovel=0
lpc=mwt5QAA/BME8RhZBODbowBCAv0BcF7TARU+JQB8TI8ABiwhAdRgTwIWyuD8Oc8G+lvGCPra1IL9qvls/+WZuv7P3gT/JOAe/VtpPPCKaAb6iC0s/9yyYv14VIz/8D1q9
lpc_rms=-31.59
sample=Violin2Solo_sustain_MF_F4.opus
</region>

<region>
hivel=127
key=F5
loop_end=279515
loop_mode=loop_continuous
loop_start=75483
loop_xfade=53884
lovel=0
lpc=YnVeQDtHvsAefrpAS1KFwPHNYEBAufm//umUP0iaiL9TIyA/Tv+qPssK+L6uJnc/lvZivx3SPj20j4Q/VBqBv6XHtT/Ttd+/YMDtP2Lsnb+5MKM/K7CFvzz4aD/fvpC+
lpc_rms=-29.76
sample=Violin2Solo_sustain_MF_F5.opus
</region>

<region>
hivel=127
key=F6
loop_end=276391
loop_mode=loop_continuous
loop_start=74639
loop_xfade=53282
lovel=0
lpc=eeHSQL0JXsAjnnNAapeqvpudvz9nqQVACwKlPjbmfD8dsUI/3EKpP8J5FD83zoI/IS22PzE0lD696r4/LaOvPuja9T9cravAh9E3QM02nb8wLlu9KYw7P8/0AcBE5Gs/
lpc_rms=-28.68
sample=Violin2Solo_sustain_MF_F6.opus
</region>

<region>
hivel=127
key=G#3
loop_end=284477
loop_mode=loop_continuous
loop_start=76823
loop_xfade=54841
lovel=0
lpc=XpOWQFDQNcGLBWpBH31GwePpAkEpM6DAazyFQD/rgcA6bGJAhNnxv/7UDT6Jabs+nXURPhfYV78tzr4//Szbv0xqlz+hML29sfYAvkwnrr6pTBw/LNKGvt0Hb72sFYQ9
lpc_rms=-34.20
sample=Violin2Solo_sustain_MF_G#3.opus
</region>

<region>
hivel=127
key=G#4
loop_end=276858
loop_mode=loop_continuous
loop_start=74766
loop_xfade=53372
lovel=0
lpc=uTGfQA3+H8G/ay5BVgr5wBRz3kDoosjAHz5dQEOpmL1TCKO/X7u0P/JihL9zoTo/yApXv2/kgj4I+oM/SHm7v4STpD/UFWu/OiBzP+59Zr+yKsU/nq/TvxFokT+fKd6+
lpc_rms=-32.60
sample=Violin2Solo_sustain_MF_G#4.opus
</region>

<region>
hivel=127
key=G#5
loop_end=274140
loop_mode=loop_continuous
loop_start=74032
loop_xfade=52848
lovel=0
lpc=MVtMQJtePsCRKixAhZGwv2amqz9pXY47tcNrP0hev764NVE8WAEYP1EVt75RTWc/htwXP2ad4r5jjkk/6hqavphcOj9JE28/p0thvudePD9s4Sq+7cR7PUHMsD5Yhjs/
lpc_rms=-28.63
sample=Violin2Solo_sustain_MF_G#5.opus
</region>

<region>
hivel=127
key=G#6
loop_end=271124
loop_mode=loop_continuous
loop_start=73217
loop_xfade=52266
lovel=0
lpc=ErjsQE8JXMAXaRNAHSewP4lBrz6rFARAh+7IPr2TzD9TWbA//68PPUVHFUA5/HQ/3yLLPxCsFUBbaH/ArpPlPmoANkCSe6i/k3+UP1GNZD7LcrU846hOP1vlnb46T60/
lpc_rms=-28.81
sample=Violin2Solo_sustain_MF_G#6.opus
</region>

<region>
hivel=127
key=G3
loop_end=277281
loop_mode=loop_continuous
loop_start=74880
loop_xfade=53453
lovel=0
lpc=5ZK+QE6abMG/NJZBR/WFweRiSUH7nw7BQsjIQLh3isDnSTRAVLuOvwfS275/JPM/Ll9TwJl+ikC6nHbA4J5OQNwGKMBWlxhA9ggbwGSVHEDlxybAFf8fQBe8sb9b/pU+
lpc_rms=-30.63
sample=Violin2Solo_sustain_MF_G3.opus
</region>

<region>
hivel=127
key=G4
loop_end=285688
loop_mode=loop_continuous
loop_start=77150
loop_xfade=55074
lovel=0
lpc=ZEKjQGkONsGQil5BWaUrwVMH40ARGI/ArQFBQKQRDsCXlQhAaVUIwEaOoT8DkP++fuCAPoVeXb+X+IU/6Bqbvx8Zdz/ZcqE9gqrbvloeOD5ALmA+ygyhPn8B3L64umM+
lpc_rms=-29.02
sample=Violin2Solo_sustain_MF_G4.opus
</region>

<region>
hivel=127
key=G5
loop_end=279499
loop_mode=loop_continuous
loop_start=75479
loop_xfade=53881
lovel=0
lpc=C6ZfQLsbrcCU8apAYZmKwCduiUAJiSDAIf7YP/K3pb86A64/N6BLv7IAED+a5xO+76kqP3xas76avxs/WQpLvxyjkT/rRtS+gNMdPxCZhT5mMFy/bKeZP0uogr8gw1o/
lpc_rms=-33.63
sample=Violin2Solo_sustain_MF_G5.opus
</region>

<region>
hivel=127
key=G6
loop_end=275867
loop_mode=loop_continuous
loop_start=74498
loop_xfade=53181
lovel=0
lpc=eqzIQKicmL9bsYY//nBIP0Ur0z7GBsM/xi3qPxh9074Qt02/xvm2PxixYD8x0mE/p4WvPwl0zT407wVA4MmCwB/IBb9lvto/yaAKvx8eYz9v+k09j2eAv7PuKj+63hFA
lpc_rms=-30.58
sample=Violin2Solo_sustain_MF_G6.opus
</region>
</group>

<group>
group_label=FF
lpc_hicc1=127
lpc_locc1=85

<region>
hivel=127
key=A#3
loop_end=278573
loop_mode=loop_continuous
loop_start=75229
loop_xfade=53702
lovel=0
lpc=CcezQDCkUcFsd5FBliuEweq3SEG7xOTADL+RQBiTZcD5hoBANgInwOY4TD+h/F0/qGuiv+YRnD/6UVO+AL+wvwOHIUCtYTPAByA5QBQi8L+GAvI+DZjEPtgkL76MERs+
lpc_rms=-24.59
sample=Violin2Solo_sustain_FF_A#3.opus
</region>

<region>
hivel=127
key=A#4
loop_end=271041
loop_mode=loop_continuous
loop_start=73195
loop_xfade=52250
lovel=0
lpc=32aXQARJFcE14ydB7AXfwDeCo0Ao4XfAnfxRQHn6/r9pjB1AKp/Ev0becj9emo69OdarPwYn4b/WDA9AYkmIv1w7fT8UgFG+PQEIPu7uDz9EvHq+hC/qPrtfBb06nSw+
lpc_rms=-27.13
sample=Violin2Solo_sustain_FF_A#4.opus
</region>

<region>
hivel=127
key=A#5
loop_end=280829
loop_mode=loop_continuous
loop_start=75838
loop_xfade=54137
lovel=0
lpc=eZuTQBdQEMAdaWlAKg76vUq0H0CBfA6+8GMVQGAnhz++az8/+rHcP3RDqz/I11s/sKfbP6rWaD//gtg/t5avPu5mC0DlFYw/2xoyP377CUAa9zA/s73QP4s3uT7UwTBA
lpc_rms=-19.65
sample=Violin2Solo_sustain_FF_A#5.opus
</region>

<region>
hivel=127
key=A#6
loop_end=276060
loop_mode=loop_continuous
loop_start=74550
loop_xfade=53218
lovel=0
lpc=+x0WQfCr877wTrJAJAxIQJQbp0DnEy5A7+15QN5+XkB6tD1AtnW1QKP2n0CCXcBAT2VYQIbeSsB2f5RAY7QQvm5RAECLbqu+TeA9QJfZDT8blhpAswJhP9lNsD6K7LC/
lpc_rms=-19.25
sample=Violin2Solo_sustain_FF_A#6.opus
</region>

<region>
hivel=127
key=A3
loop_end=283286
loop_mode=loop_continuous
loop_start=76501
loop_xfade=54611
lovel=0
lpc=4dO/QFYKdsGCBqtBJrWYwbjfSEH2v73AcTNLQJp2msBUjvZA2oT8wPrAskB6jyTAt/CKPo4Ziz8QKZG/fCGpP3si67+iWyFAM5QewK+rFECtTS3AGBlBQEurEMD6MBw/
lpc_rms=-22.36
sample=Violin2Solo_sustain_FF_A3.opus
</region>

<region>
hivel=127
key=A4
loop_end=273123
loop_mode=loop_continuous
loop_start=73757
loop_xfade=52652
lovel=0
lpc=P7u6QNjfTsFJ+HBBC/0bwXGcoEBNXzfAO9MTQHzM/r/UFg9AhfQRwH/zPz+jSsQ+ACI9PV6QUL/OWII/ITE9vyjclT+01Ry/FX8lvhLgmj/NcCO/yfFPv5slzz84IWe/
lpc_rms=-26.02
sample=Violin2Solo_sustain_FF_A4.opus
</region>

<region>
hivel=127
key=A5
loop_end=284747
loop_mode=loop_continuous
loop_start=76896
loop_xfade=54893
lovel=0
lpc=KKsYQC3WxL+hV8I/QITQvpArtD8O4GG9HvG+PtZH5D1wKD8/xJmfPq3yAT6oYuY+JuGLPtYGwD7Y6wg/1DiQPuFpAj8wno+94SNCP4U+AD9J1z0895UdPkplJT5l6Gw/
lpc_rms=-27.27
sample=Violin2Solo_sustain_FF_A5.opus
</region>

<region>
hivel=127
key=A6
loop_end=274396
loop_mode=loop_continuous
loop_start=74101
loop_xfade=52897
lovel=0
lpc=4PwkQRYWTsB+cydBu9/oPy2t2UDSCrRAmMqgQAaFoEBJa9BA2DHFQG/u7UCD2gNBh+sXQfOdN0D311FAOtz1QNUDwr/FeOVAdfcLv1AygECBmjtAJ/cYQNG/8z9JdvU/
lpc_rms=-18.31
sample=Violin2Solo_sustain_FF_A6.opus
</region>

<region>
hivel=127
key=B3
loop_end=281745
loop_mode=loop_continuous
loop_start=76085
loop_xfade=54314
lovel=0
lpc=cDydQEAVQMFVj4RBTp56wULiQUFppgLBo227QCFnnMCLcZhAVR9/wDQvEkDIOcm+qynuvpGAQD+s+e+9O8eVvzATJEADkA7ABTeYPy9jGT+AQu+/aBL/Pzeji7+OLJY+
lpc_rms=-23.68
sample=Violin2Solo_sustain_FF_B3.opus
</region>

<region>
hivel=127
key=B4
loop_end=272416
loop_mode=loop_continuous
loop_start=73566
loop_xfade=52515
lovel=0
lpc=ANeMQCK6DcFBhBlBoJPXwBXsjUBr7QfA5+K3PbGrTT/EcFk+j6H/vgUPdT5w7M0+BSHIPTGIpL5E5z8/n+Zqv/avvz8Vfd2/oxsUQI8++L/Jq6s/DGvIv3GT8z87RGq/
lpc_rms=-26.24
sample=Violin2Solo_sustain_FF_B4.opus
</region>

<region>
hivel=127
key=B5
loop_end=281772
loop_mode=loop_continuous
loop_start=76093
loop_xfade=54319
lovel=0
lpc=U9+3QDnimr9NNJ5ACSW7vdQ2b0CjHZw/hTlYQB5vnD+gmDNAXpv/PxZyGkD7Y7E/E0dwQOVubT9CZjtAi0XeP+5VLECEUuQ/I6Y9QDlCjj8mrFZAhlSVP0i3WUAe8zA/
lpc_rms=-18.00
sample=Violin2Solo_sustain_FF_B5.opus
</region>

<region>
hivel=127
key=B6
loop_end=269793
loop_mode=loop_continuous
loop_start=72858
loop_xfade=52010
lovel=0
lpc=s6v+QNpJxb+bgrFAW8ktPm0dfEAA7f4/y4piQMnHDkCE+1hAzGkEQE7NiUCPRgxA4mLDwHf6pD/pYETAKmQLvkFxAsClSJ6/A8kRwPPXib+YBiLAAT0av3O1ZMC7lm2/
lpc_rms=-22.96
sample=Violin2Solo_sustain_FF_B6.opus
</region>

<region>
hivel=127
key=C#4
loop_end=285533
loop_mode=loop_continuous
loop_start=77108
loop_xfade=55044
lovel=0
lpc=cr2uQLWNUcHXr4ZB9h9kwXqxGkG7+LbAAhB7QN8wj8Berp1AjMh4wKUB5T+3WwW/Du+LPpUt0b5vKH4+UZN0PrhJ+T0k66O+9aoWP6Ss/D41AP+/ZgsgQE97uL/k+a4+
lpc_rms=-27.25
sample=Violin2Solo_sustain_FF_C#4.opus
</region>

<region>
hivel=127
key=C#5
loop_end=271920
loop_mode=loop_continuous
loop_start=73432
loop_xfade=52420
lovel=0
lpc=p7SaQLqhHMFWHSdB8G7bwPrTZEBmR3C/DPEovvO/qL9KCwxATjiRv/CZHr8ZNqs/CUGfv/dYqj0NJZU/Ashbv+rcWT+AgQG/Yyr9Pao4Oj/bfxU9LQKVv7mBmD9vzZ2+
lpc_rms=-25.02
sample=Violin2Solo_sustain_FF_C#5.opus
</region>

<region>
hivel=127
key=C#6
loop_end=279232
loop_mode=loop_continuous
loop_start=75407
loop_xfade=53829
lovel=0
lpc=nHbxQLYgx7//4D5A82YKQMR7VUBlbR5AlIs4QEMPLEAvOlNA0TsVQGLROkC9DyJAUApqQHscAkAbEUVAcI8iQKcORkBG8y1Afy40QAhPK0CYW35AxHLgv/PgyL4cyTRA
lpc_rms=-21.52
sample=Violin2Solo_sustain_FF_C#6.opus
</region>

<region>
hivel=127
key=C4
loop_end=288935
loop_mode=loop_continuous
loop_start=78027
loop_xfade=55700
lovel=0
lpc=ON/KQDV8gME6ZK9BiUmgwVqvbUEl1BfB7IDHQEJ5ysAMHuxA3bvawN3ckkDLsRrAQc8NP/defz4PlrE+g+Stv0uoCkBZ0ay/hy2SPYsS8z/DP1TAnZmEQDh2MsB0VlQ/
lpc_rms=-21.82
sample=Violin2Solo_sustain_FF_C4.opus
</region>

<region>
hivel=127
key=C5
loop_end=282035
loop_mode=loop_continuous
loop_start=76164
loop_xfade=54370
lovel=0
lpc=g5uQQObuEMGo5hdBE/HcwInlq0CcIGbA9EDkPxMxCcDMiyFAyhKJv//eJL9g6O8+LCp9PgkQe79l6tE/f3qlvxkaqj/lGZm/5bJCP+W9Fz74X6i+5BgePwhV1L4jyCo+
lpc_rms=-25.72
sample=Violin2Solo_sustain_FF_C5.opus
</region>

<region>
hivel=127
key=C6
loop_end=278484
loop_mode=loop_continuous
loop_start=75205
loop_xfade=53685
lovel=0
lpc=rpDaQNzaN8CjHIRAEJRqv497NECyfMq+tmExQB9SuL4P4fg/NLOCPwmUjz/7CFU/ZgLQP6FwRj9pGrQ/9VZoP0LhlD8axdc/IkoaPltFFkDKKRW+n/gwQHqK2r8A0cy/
lpc_rms=-18.63
sample=Violin2Solo_sustain_FF_C6.opus
</region>

<region>
hivel=127
key=C7
loop_end=278139
loop_mode=loop_continuous
loop_start=75111
loop_xfade=53619
lovel=0
lpc=RfJoQd8IYcCV2FhAcuFZQMhoMkCSn5BADHiuQPy2az8zrMVAg/d4QCD0CUEi1z3BXIYHwBMjz0DPOp6/ibU/QBcbwD27ro+/ztYjQEXxXj4pTqy+pBIIwOwoIEBDh6BA
lpc_rms=-19.33
sample=Violin2Solo_sustain_FF_C7.opus
</region>

<region>
hivel=127
key=D#4
loop_end=289159
loop_mode=loop_continuous
loop_start=78087
loop_xfade=55743
lovel=0
lpc=eSjVQHhjg8EktbRBXmWkwdrGfkEIETLBVNf+QLPgv8Deb6JAUih5wBH5OEBw3RXAGM+oP36/b79NeZE/9lSWv5WJlj+w3o2/DbXbPwQ37L+lP2U/zH6hPywC/r+/r4I/
lpc_rms=-20.97
sample=Violin2Solo_sustain_FF_D#4.opus
</region>

<region>
hivel=127
key=D#5
loop_end=285816
loop_mode=loop_continuous
loop_start=77185
loop_xfade=55099
lovel=0
lpc=F+VyQIAt18AnXAJBDKnEwNoYlEDxlRfA+zVXPxdUSj5S5QC+rkcFP0rxZL+1I9Q+E7DQPuPBVr8LjV0/RrdYv8/Mgj/H2Re/Ywk+P3iqN73E/RM+rVYNP71FIr4EzPw+
lpc_rms=-29.00
sample=Violin2Solo_sustain_FF_D#5.opus
</region>

<region>
hivel=127
key=D#6
loop_end=268894
loop_mode=loop_continuous
loop_start=72615
loop_xfade=51836
lovel=0
lpc=Vkr1QGMtGcAHp6JAtithQMUDgkDit3VAuB+aQGsieUBSUo1AWciFQLQNj0DmrnVAhyqiQEqfW0BZQqFAIRNhQKFGnkBf+HhAI1qfQL8s77/sv3VAE98LQHuJUL9w/Kk/
lpc_rms=-19.48
sample=Violin2Solo_sustain_FF_D#6.opus
</region>

<region>
hivel=127
key=D4
loop_end=288914
loop_mode=loop_continuous
loop_start=78021
loop_xfade=55696
lovel=0
lpc=TXfPQHKfhsENrb1Bq/21wbwkiUG5Ox/BKAyhQGbhfsC/MYxAK55cwABmET/WqPs/0JlPwGDlOUCTKHm+uclXwE6MrEDn9o3A63wtQMSnzz5T3TrAuLpZQJAC2L/KweM+
lpc_rms=-23.07
sample=Violin2Solo_sustain_FF_D4.opus
</region>

<region>
hivel=127
key=D5
loop_end=279254
loop_mode=loop_continuous
loop_start=75413
loop_xfade=53834
lovel=0
lpc=wuqSQIZa/sDHeg1BwmnbwDpHukD6yXTAUAjoP/3iiL+iv8k+E9oRPwJ/sb+6Zo8/uQYWv95Har0edDY/CJFFv0zAAj8CQ6A9+Q8hPwkFsr6aZhI/mULkPQQf2D7/6Pw9
lpc_rms=-27.47
sample=Violin2Solo_sustain_FF_D5.opus
</region>

<region>
hivel=127
key=D6
loop_end=283844
loop_mode=loop_continuous
loop_start=76652
loop_xfade=54719
lovel=0
lpc=bkvuQL/Tm7+mib9ALWlaQE1QsECxHpNApc+iQFe+iUD2a6dAdRGYQIbxnUCVRZJAw6GgQEjflED+KplAWHidQIWsj0AK7aZAiGWJQAh0vUDkJ+2+o1M2QF9fAkCEv6o+
lpc_rms=-17.94
sample=Violin2Solo_sustain_FF_D6.opus
</region>

<region>
hivel=127
key=E4
loop_end=283296
loop_mode=loop_continuous
loop_start=76504
loop_xfade=54613
lovel=0
lpc=xiK1QK1YX8Gm4JNBscSEwdsaS0Fj4wbB1oefQOkVPMBX1dQ/49q/vrI3xL6FjQY/5W2HPdtwR7+eU90/FtQVwL/xIkCqzwPAr4XRP0/q1b9pfLg//P6Lvy78XD9/Je6+
lpc_rms=-24.32
sample=Violin2Solo_sustain_FF_E4.opus
</region>

<region>
hivel=127
key=E5
loop_end=281704
loop_mode=loop_continuous
loop_start=76074
loop_xfade=54306
lovel=0
lpc=FkyJQPKO88CQPRNBWGrswCpHx0CdwHzA28M4QHaNDcCo1hZAXBTVv4RWCT94L4Q/XeqEv5e0bD/0guy+j7kVP7f7tr2RygI/eCMlv0i9mj+9gyK/FuwOPyT/4L7IB1U/
lpc_rms=-24.89
sample=Violin2Solo_sustain_FF_E5.opus
</region>

<region>
hivel=127
key=E6
loop_end=284736
loop_mode=loop_continuous
loop_start=76893
loop_xfade=54890
lovel=0
lpc=Zuz+QHc9q79/LKlAZtOmP8BNg0BSeWZAm+WMQAdHKkDkIY1AjE9PQORcZUBeC2pALZ9mQFFYYkC3dWRAIetcQBH9aUC+RYRAAqFSwMIYQ0AudRy+KGpwPy0JWT8Mkma/
lpc_rms=-19.21
sample=Violin2Solo_sustain_FF_E6.opus
</region>

<region>
hivel=127
key=F#4
loop_end=274026
loop_mode=loop_continuous
loop_start=74001
loop_xfade=52826
lovel=0
lpc=2IjCQGPlfsFSPLNBCFKqwUKagkE4uCXBBEjgQAlM1MD/38lANSNEwMGvgr+e7zZAOyICwD2IFz/giv4+ZoExv20e3j6+H4K+sqg+P9/AzL5+Kk6/3M26P9P7Nb+coO49
lpc_rms=-25.40
sample=Violin2Solo_sustain_FF_F#4.opus
</region>

<region>
hivel=127
key=F#5
loop_end=275776
loop_mode=loop_continuous
loop_start=74473
loop_xfade=53163
lovel=0
lpc=vbHEQB6vSMEF2ndB8QdJwdxaMEExoPfAQ4C3QG+/lsC2Y8pACpZjwCG1a72g3xxAo4HEv5UyTT+3DAU/BnULwLhzOkABaSLAToj1PyIhQMAYqWlAqlZzwG4rI0BbSb+/
lpc_rms=-24.27
sample=Violin2Solo_sustain_FF_F#5.opus
</region>

<region>
hivel=127
key=F#6
loop_end=280193
loop_mode=loop_continuous
loop_start=75666
loop_xfade=54015
lovel=0
lpc=5IIyQX1H7MAmUg9BQcrpP6DsiEDTeh9AZ25uQK8Ft0D21mtACYWrQI0oX0C/l6BA2BiCQBTZokBfJlRA4vnBQHFdscD5TfFATGdkPydSmL/QCAxAp1xAP8MvyT+OY5G/
lpc_rms=-14.78
sample=Violin2Solo_sustain_FF_F#6.opus
</region>

<region>
hivel=127
key=F4
loop_end=267803
loop_mode=loop_continuous
loop_start=72320
loop_xfade=51626
lovel=0
lpc=iheJQB28EME8qiNBrBbvwO+psUCB1ovAb9JWQE43J8BMuh1APbX+v+e9gT/k1T2+dWHTO1H2jr6yGik/9Bxdv0TPTD/fuMW+NvmxPmShAb919BI/1uRZv5qKbT92rR6/
lpc_rms=-25.63
sample=Violin2Solo_sustain_FF_F4.opus
</region>

<region>
hivel=127
key=F5
loop_end=278382
loop_mode=loop_continuous
loop_start=75177
loop_xfade=53666
lovel=0
lpc=iWhZQGJfvcAwqNZAotKqwIMZmEDVOkXA4rAUQFZw378UlQBAXRiKv/TkbD/olwS/7MoSPwFSCL8HjDY/IjWJu4hkJb4ecWo+HBENPgBEkT7SSAW/TZiXPg3ugj0WtCU6
lpc_rms=-27.02
sample=Violin2Solo_sustain_FF_F5.opus
</region>

<region>
hivel=127
key=F6
loop_end=269638
loop_mode=loop_continuous
loop_start=72816
loop_xfade=51980
lovel=0
lpc=u5XTQPHYjL4kbIhAejawP6xEd0DqtV5AD8SZQG646j+ts0lARIcVQKtrK0AvWRRAncZMQFwrDUAvsj9AaI0OQLkFSEDrLkrArtnjP2edMb/aZig/5zoHvwMps78XDdS/
lpc_rms=-19.15
sample=Violin2Solo_sustain_FF_F6.opus
</region>

<region>
hivel=127
key=G#3
loop_end=281857
loop_mode=loop_continuous
loop_start=76115
loop_xfade=54336
lovel=0
lpc=bZeUQBkuMcFHn21BJkhZwZbpJUGkueHAsnalQOloksAy3YNA0nwMwOhzwr1zsng/rRXkvsz//r6sLpo/ZTutv/8rsT/+xbq/OFcJQN7Q8b+w1k4/MdLEPh5Pz74DKgE+
lpc_rms=-23.55
sample=Violin2Solo_sustain_FF_G#3.opus
</region>

<region>
hivel=127
key=G#4
loop_end=278511
loop_mode=loop_continuous
loop_start=75212
loop_xfade=53690
lovel=0
lpc=mRLGQP5bYsE3BZJBEhtswfmfIkG83uHAS8zFQO0fxcB/h65AL/VKwBVpPD/4g9c+iqKvPbJkvb957C9ALIESwFMq5D9Bnry//m0pQMK7QMDOsz5AV3HWvy7zVT/eKNy+
lpc_rms=-22.62
sample=Violin2Solo_sustain_FF_G#4.opus
</region>

<region>
ampeg_attack=0.01
hivel=127
key=G#5
loop_end=204270
loop_mode=loop_continuous
loop_start=55163
loop_xfade=39378
lovel=0
lpc=cro9QDKjDcAiRe4/V18zv+J1Gj9Kw9c+jB1lP1weeb0/8Zi+uH3tPpOZOj76KLo+4D+iP7tfEL912Yk+spkAvtduOD/+0n4/NIu4vpnSjj/yUTy/24qyPtRtAT+M3yo/
lpc_rms=-23.89
sample=Violin2Solo_sustain_FF_G#5.opus
</region>

<region>
hivel=127
key=G#6
loop_end=275677
loop_mode=loop_continuous
loop_start=74447
loop_xfade=53144
lovel=0
lpc=Nv0GQeuDIsBYerhAxi8oQJsW/T8GWJZA6uYXQNS0c0DEFXRAaQp6QPbpa0A5dKBAVnBHQKqOq0A5xfS/aDbLP06NekDs0BHAGxhtQIbmhr02sB0/A86hP3OQoz0yvg4/
lpc_rms=-20.03
sample=Violin2Solo_sustain_FF_G#6.opus
</region>

<region>
hivel=127
key=G3
loop_end=278911
loop_mode=loop_continuous
loop_start=75320
loop_xfade=53768
lovel=0
lpc=bn+7QK2KZMEiipJBrRF0wdIeK0FcOvPAte+8QCs3ucCgA8VA3ISswFzTakBVkwrAPJiNPy18or5+dL0+HOYDv3uHjT8MyjO/GX2pPqRS2bxbOoa9hUNIP0Uyir/LtMg+
lpc_rms=-22.61
sample=Violin2Solo_sustain_FF_G3.opus
</region>

<region>
hivel=127
key=G4
loop_end=284127
loop_mode=loop_continuous
loop_start=76728
loop_xfade=54773
lovel=0
lpc=8JWkQBAwMsGlo1JBXfcWwf3OwEBpRHrAAUg2QFrbNMDo4VRAL5I+wMVz+T+j6oC/YhwmPzh0bL9T2p8/SYmmv3CtpT8z4V2/waDbPuL9wDyEB5o9FpwhPgftSr05QkQ9
lpc_rms=-25.12
sample=Violin2Solo_sustain_FF_G4.opus
</region>

<region>
hivel=127
key=G5
loop_end=278171
loop_mode=loop_continuous
loop_start=75120
loop_xfade=53625
lovel=0
lpc=a1k0QAOlKsA2Gi9A7kH0v4LuAkA0DnW/D52EP13klr67XRE+mxUEP8vLNb4rPFc/ZTK+PqpqkL477Qo/rb2/vuq56T4Wuau+rLoEPzjnDD81jcq+hDc4P+BGEb85sCg/
lpc_rms=-22.05
sample=Violin2Solo_sustain_FF_G5.opus
</region>

<region>
hivel=127
key=G6
loop_end=276271
loop_mode=loop_continuous
loop_start=74607
loop_xfade=53259
lovel=0
lpc=vwoLQV6RYMAnncNAIoBOQMkFMUDMkpxAdONYQJxXjkAZiUFAo1WkQBuFkUAwAW9AduquQA8US0Df5dlAE1VRwF/UjEDk8RxANTKCvxKOKEBrSss8pUqePg1+Gj+iSYA/
lpc_rms=-17.52
sample=Violin2Solo_sustain_FF_G6.opus
</region>
</group>

<group>
amp_veltrack=0
group_label=Group
volume=-4

<region>
hikey=a3
hivel=127
lokey=g#3
lovel=85
pitch_keycenter=a3
sample=Violin2Solo_tenuto_eighth_FF_A3.opus
</region>

<region>
hikey=a4
hivel=127
lokey=g#4
lovel=85
pitch_keycenter=a4
sample=Violin2Solo_tenuto_eighth_FF_A4.opus
</region>

<region>
hikey=a5
hivel=127
lokey=g#5
lovel=85
pitch_keycenter=a5
sample=Violin2Solo_tenuto_eighth_FF_A5.opus
</region>

<region>
hikey=a6
hivel=127
lokey=g#6
lovel=85
pitch_keycenter=a6
sample=Violin2Solo_tenuto_eighth_FF_A6.opus
</region>

<region>
hikey=b3
hivel=127
lokey=a#3
lovel=85
pitch_keycenter=b3
sample=Violin2Solo_tenuto_eighth_FF_B3.opus
</region>

<region>
hikey=b4
hivel=127
lokey=a#4
lovel=85
pitch_keycenter=b4
sample=Violin2Solo_tenuto_eighth_FF_B4.opus
</region>

<region>
hikey=b5
hivel=127
lokey=a#5
lovel=85
pitch_keycenter=b5
sample=Violin2Solo_tenuto_eighth_FF_B5.opus
</region>

<region>
hikey=b6
hivel=127
lokey=a#6
lovel=85
pitch_keycenter=b6
sample=Violin2Solo_tenuto_eighth_FF_B6.opus
</region>

<region>
hikey=c#4
hivel=127
lokey=c4
lovel=85
pitch_keycenter=c#4
sample=Violin2Solo_tenuto_eighth_FF_C#4.opus
</region>

<region>
hikey=c#5
hivel=127
lokey=c5
lovel=85
pitch_keycenter=c#5
sample=Violin2Solo_tenuto_eighth_FF_C#5.opus
</region>

<region>
hikey=c#6
hivel=127
lokey=c6
lovel=85
pitch_keycenter=c#6
sample=Violin2Solo_tenuto_eighth_FF_C#6.opus
</region>

<region>
hikey=E7
hivel=127
lokey=c7
lovel=85
pitch_keycenter=C#7
sample=Violin2Solo_tenuto_eighth_FF_C#7.opus
</region>

<region>
hikey=d#4
hivel=127
lokey=d4
lovel=85
pitch_keycenter=d#4
sample=Violin2Solo_tenuto_eighth_FF_D#4.opus
</region>

<region>
hikey=d#5
hivel=127
lokey=d5
lovel=85
pitch_keycenter=d#5
sample=Violin2Solo_tenuto_eighth_FF_D#5.opus
</region>

<region>
hikey=d#6
hivel=127
lokey=d6
lovel=85
pitch_keycenter=d#6
sample=Violin2Solo_tenuto_eighth_FF_D#6.opus
</region>

<region>
hikey=f4
hivel=127
lokey=e4
lovel=85
pitch_keycenter=f4
sample=Violin2Solo_tenuto_eighth_FF_F4.opus
</region>

<region>
hikey=f5
hivel=127
lokey=e5
lovel=85
pitch_keycenter=f5
sample=Violin2Solo_tenuto_eighth_FF_F5.opus
</region>

<region>
hikey=f6
hivel=127
lokey=e6
lovel=85
pitch_keycenter=f6
sample=Violin2Solo_tenuto_eighth_FF_F6.opus
</region>

<region>
hivel=127
key=g3
lovel=85
sample=Violin2Solo_tenuto_eighth_FF_G3.opus
</region>

<region>
hikey=g4
hivel=127
lokey=f#4
lovel=85
pitch_keycenter=g4
sample=Violin2Solo_tenuto_eighth_FF_G4.opus
</region>

<region>
hikey=g5
hivel=127
lokey=f#5
lovel=85
pitch_keycenter=g5
sample=Violin2Solo_tenuto_eighth_FF_G5.opus
</region>

<region>
hikey=g6
hivel=127
lokey=f#6
lovel=85
pitch_keycenter=g6
sample=Violin2Solo_tenuto_eighth_FF_G6.opus
</region>

<region>
hikey=a3
hivel=84
lokey=g#3
lovel=43
pitch_keycenter=a3
sample=Violin2Solo_tenuto_eighth_MF_A3.opus
</region>

<region>
hikey=a4
hivel=84
lokey=g#4
lovel=43
pitch_keycenter=a4
sample=Violin2Solo_tenuto_eighth_MF_A4.opus
</region>

<region>
hikey=a5
hivel=84
lokey=g#5
lovel=43
pitch_keycenter=a5
sample=Violin2Solo_tenuto_eighth_MF_A5.opus
</region>

<region>
hikey=a6
hivel=84
lokey=g#6
lovel=43
pitch_keycenter=a6
sample=Violin2Solo_tenuto_eighth_MF_A6.opus
</region>

<region>
hikey=b3
hivel=84
lokey=a#3
lovel=43
pitch_keycenter=b3
sample=Violin2Solo_tenuto_eighth_MF_B3.opus
</region>

<region>
hikey=b4
hivel=84
lokey=a#4
lovel=43
pitch_keycenter=b4
sample=Violin2Solo_tenuto_eighth_MF_B4.opus
</region>

<region>
hikey=b5
hivel=84
lokey=a#5
lovel=43
pitch_keycenter=b5
sample=Violin2Solo_tenuto_eighth_MF_B5.opus
</region>

<region>
hikey=b6
hivel=84
lokey=a#6
lovel=43
pitch_keycenter=b6
sample=Violin2Solo_tenuto_eighth_MF_B6.opus
</region>

<region>
hikey=c#4
hivel=84
lokey=c4
lovel=43
pitch_keycenter=c#4
sample=Violin2Solo_tenuto_eighth_MF_C#4.opus
</region>

<region>
hikey=c#5
hivel=84
lokey=c5
lovel=43
pitch_keycenter=c#5
sample=Violin2Solo_tenuto_eighth_MF_C#5.opus
</region>

<region>
hikey=c#6
hivel=84
lokey=c6
lovel=43
pitch_keycenter=c#6
sample=Violin2Solo_tenuto_eighth_MF_C#6.opus
</region>

<region>
hikey=E7
hivel=84
lokey=c7
lovel=43
pitch_keycenter=C#7
sample=Violin2Solo_tenuto_eighth_MF_C#7.opus
</region>

<region>
hikey=d#4
hivel=84
lokey=d4
lovel=43
pitch_keycenter=d#4
sample=Violin2Solo_tenuto_eighth_MF_D#4.opus
</region>

<region>
hikey=d#5
hivel=84
lokey=d5
lovel=43
pitch_keycenter=d#5
sample=Violin2Solo_tenuto_eighth_MF_D#5.opus
</region>

<region>
hikey=d#6
hivel=84
lokey=d6
lovel=43
pitch_keycenter=d#6
sample=Violin2Solo_tenuto_eighth_MF_D#6.opus
</region>

<region>
hikey=f4
hivel=84
lokey=e4
lovel=43
pitch_keycenter=f4
sample=Violin2Solo_tenuto_eighth_MF_F4.opus
</region>

<region>
hikey=f5
hivel=84
lokey=e5
lovel=43
pitch_keycenter=f5
sample=Violin2Solo_tenuto_eighth_MF_F5.opus
</region>

<region>
hikey=f6
hivel=84
lokey=e6
lovel=43
pitch_keycenter=f6
sample=Violin2Solo_tenuto_eighth_MF_F6.opus
</region>

<region>
hivel=84
key=g3
lovel=43
sample=Violin2Solo_tenuto_eighth_MF_G3.opus
</region>

<region>
hikey=g4
hivel=84
lokey=f#4
lovel=43
pitch_keycenter=g4
sample=Violin2Solo_tenuto_eighth_MF_G4.opus
</region>

<region>
hikey=g5
hivel=84
lokey=f#5
lovel=43
pitch_keycenter=g5
sample=Violin2Solo_tenuto_eighth_MF_G5.opus
</region>

<region>
hikey=g6
hivel=84
lokey=f#6
lovel=43
pitch_keycenter=g6
sample=Violin2Solo_tenuto_eighth_MF_G6.opus
</region>

<region>
hikey=a3
hivel=42
lokey=g#3
lovel=0
pitch_keycenter=a3
sample=Violin2Solo_tenuto_eighth_PP_A3.opus
</region>

<region>
hikey=a4
hivel=42
lokey=g#4
lovel=0
pitch_keycenter=a4
sample=Violin2Solo_tenuto_eighth_PP_A4.opus
</region>

<region>
hikey=a5
hivel=42
lokey=g#5
lovel=0
pitch_keycenter=a5
sample=Violin2Solo_tenuto_eighth_PP_A5.opus
</region>

<region>
hikey=a6
hivel=42
lokey=g#6
lovel=0
pitch_keycenter=a6
sample=Violin2Solo_tenuto_eighth_PP_A6.opus
</region>

<region>
hikey=b3
hivel=42
lokey=a#3
lovel=0
pitch_keycenter=b3
sample=Violin2Solo_tenuto_eighth_PP_B3.opus
</region>

<region>
hikey=b4
hivel=42
lokey=a#4
lovel=0
pitch_keycenter=b4
sample=Violin2Solo_tenuto_eighth_PP_B4.opus
</region>

<region>
hikey=b5
hivel=42
lokey=a#5
lovel=0
pitch_keycenter=b5
sample=Violin2Solo_tenuto_eighth_PP_B5.opus
</region>

<region>
hikey=b6
hivel=42
lokey=a#6
lovel=0
pitch_keycenter=b6
sample=Violin2Solo_tenuto_eighth_PP_B6.opus
</region>

<region>
hikey=c#4
hivel=42
lokey=c4
lovel=0
pitch_keycenter=c#4
sample=Violin2Solo_tenuto_eighth_PP_C#4.opus
</region>

<region>
hikey=c#5
hivel=42
lokey=c5
lovel=0
pitch_keycenter=c#5
sample=Violin2Solo_tenuto_eighth_PP_C#5.opus
</region>

<region>
hikey=c#6
hivel=42
lokey=c6
lovel=0
pitch_keycenter=c#6
sample=Violin2Solo_tenuto_eighth_PP_C#6.opus
</region>

<region>
hikey=E7
hivel=42
lokey=c7
lovel=0
pitch_keycenter=C#7
sample=Violin2Solo_tenuto_eighth_PP_C#7.opus
</region>

<region>
hikey=d#4
hivel=42
lokey=d4
lovel=0
pitch_keycenter=d#4
sample=Violin2Solo_tenuto_eighth_PP_D#4.opus
</region>

<region>
hikey=d#5
hivel=42
lokey=d5
lovel=0
pitch_keycenter=d#5
sample=Violin2Solo_tenuto_eighth_PP_D#5.opus
</region>

<region>
hikey=d#6
hivel=42
lokey=d6
lovel=0
pitch_keycenter=d#6
sample=Violin2Solo_tenuto_eighth_PP_D#6.opus
</region>

<region>
hikey=f4
hivel=42
lokey=e4
lovel=0
pitch_keycenter=f4
sample=Violin2Solo_tenuto_eighth_PP_F4.opus
</region>

<region>
hikey=f5
hivel=42
lokey=e5
lovel=0
pitch_keycenter=f5
sample=Violin2Solo_tenuto_eighth_PP_F5.opus
</region>

<region>
hikey=f6
hivel=42
lokey=e6
lovel=0
pitch_keycenter=f6
sample=Violin2Solo_tenuto_eighth_PP_F6.opus
</region>

<region>
hivel=42
key=g3
lovel=0
sample=Violin2Solo_tenuto_eighth_PP_G3.opus
</region>

<region>
hikey=g4
hivel=42
lokey=f#4
lovel=0
pitch_keycenter=g4
sample=Violin2Solo_tenuto_eighth_PP_G4.opus
</region>

<region>
hikey=g5
hivel=42
lokey=f#5
lovel=0
pitch_keycenter=g5
sample=Violin2Solo_tenuto_eighth_PP_G5.opus
</region>

<region>
hikey=g6
hivel=42
lokey=f#6
lovel=0
pitch_keycenter=g6
sample=Violin2Solo_tenuto_eighth_PP_G6.opus
</region>
</group>